<svg width="45" height="45" viewBox="0 0 45 45" fill="none" xmlns="http://www.w3.org/2000/svg">
<path d="M42.9775 22.5022C42.9775 33.8117 33.8073 42.9775 22.5022 42.9775C11.1971 42.9775 2.02246 33.8117 2.02246 22.5022C2.02246 11.1927 11.1927 2.02246 22.5022 2.02246C33.8117 2.02246 42.9775 11.1927 42.9775 22.5022Z" fill="#C9C3B3"/>
<path d="M42.5225 31.065C42.6792 29.6493 42.5275 28.365 42.1331 27.1971C41.491 25.301 40.2067 23.7032 38.5483 22.3128C37.1528 21.1398 36.177 19.8858 35.823 18.0555C35.7977 17.9341 35.7775 17.8178 35.7522 17.7117L35.7168 17.5398C35.4438 16.2353 35.3781 16.1999 35.5904 15.7094C36.2629 16.2049 36.9556 16.9077 37.8202 16.2049C38.1438 15.942 38.4421 15.4061 38.4219 15.0066C38.2854 12.428 35.4539 9.89987 32.8702 9.95549C31.682 9.98077 30.7719 10.542 29.9124 11.3207C29.432 11.7605 28.805 12.0841 28.1882 12.3066C27.364 12.6049 27.0506 13.2268 27.2831 13.9094C27.5309 14.6476 28.0062 15.3605 28.5371 15.937C29.2399 16.6903 30.0843 17.3173 30.8933 17.9594C31.0753 18.101 31.3837 18.1667 31.6213 18.1465C32.0562 18.1061 32.491 18.0656 32.9157 18.015C33.6742 17.9392 34.4174 17.8482 35.1303 17.7673C34.741 18.7532 32.0107 19.2487 30.5949 18.4145C30.5747 18.4044 30.5646 18.3943 30.5646 18.3943C29.518 19.7443 29.1489 21.3521 29.1034 22.9802C29.0124 26.287 29.0983 29.5937 29.0629 32.9004C29.0579 33.5931 28.8556 34.2858 28.6938 35.292C29.2247 35.828 30.2056 35.7066 31.1562 35.565C31.9753 35.4386 31.8438 34.7055 31.8893 34.1493C32.0208 32.4504 32.0865 30.7516 32.2635 29.0577C32.3039 28.7038 32.6983 28.3903 32.9258 28.0566C33.1281 28.451 33.4567 28.8353 33.5022 29.2448C33.6388 30.5089 33.6792 31.783 33.7247 33.0572C33.75 33.6841 33.9421 34.4122 32.9966 34.6246C32.8854 34.6499 32.7388 34.9785 32.7792 35.0999C32.8449 35.2819 33.0624 35.5195 33.2292 35.5347C34.7663 35.6358 36.3084 35.7774 37.8404 35.7572C38.0022 35.7622 38.159 35.7572 38.3157 35.7572C38.9124 35.737 39.4938 35.1555 40.2775 34.7257L42.5781 31.8285C42.5579 31.5757 42.4972 31.3179 42.5225 31.0701V31.065ZM41.3191 29.8566C41.2786 29.7201 41.2483 29.5836 41.223 29.4471C40.8388 27.1111 39.7668 25.215 37.8961 23.7235C36.9354 22.96 36.0253 22.0752 35.909 20.892C36.9859 22.0145 38.1388 23.2178 39.3017 24.4111C40.7022 25.8521 41.2584 27.6117 41.4455 29.5077C41.4809 29.8364 41.5011 30.1752 41.5163 30.5139C41.4556 30.2965 41.3798 30.0791 41.3191 29.8566Z" fill="#4F422D"/>
<path d="M32.7943 12.5644C32.7943 12.5644 32.7842 12.5998 32.7791 12.62C32.7185 12.792 32.5213 12.8273 32.3696 12.7616C32.1774 12.6757 32.0359 12.3723 32.1067 12.17C32.1673 11.983 32.2786 11.897 32.4505 11.9021C32.5364 11.9021 32.6173 11.9476 32.678 12.0082C32.8246 12.1498 32.8449 12.3773 32.7943 12.5644Z" fill="black"/>
<path d="M22.5024 0C10.0759 0 0 10.0759 0 22.5024C0 34.9289 10.0759 45 22.5024 45C34.9289 45 45 34.9289 45 22.5024C45 10.0759 34.9241 0 22.5024 0ZM22.5024 42.3586C11.5347 42.3586 2.64136 33.4701 2.64136 22.5024C2.64136 11.5347 11.5347 2.6462 22.5024 2.6462C33.4701 2.6462 42.3586 11.5347 42.3586 22.5024C42.3586 24.063 42.1793 25.58 41.8401 27.0339C41.6607 27.7948 41.4427 28.5363 41.1809 29.2536C41.1422 29.3651 41.0985 29.4717 41.0598 29.5832C40.2649 31.6672 39.1357 33.5719 37.7254 35.2439C34.0856 39.5961 28.6187 42.3586 22.5024 42.3586Z" fill="#9A8D70"/>
<path d="M30.5647 18.3944C30.5647 18.3944 32.4254 19.9163 35.7523 17.7168L35.7169 17.5449C35.7169 17.5449 32.0057 18.3944 30.8933 17.9646L30.5647 18.3994V18.3944Z" fill="#F2D3BD"/>
<path d="M17.9704 32.1069V13.6519M17.9704 13.6519L12.1348 20.9833M17.9704 13.6519L23.764 20.9833" stroke="#294740" stroke-width="2.5" stroke-linecap="round" stroke-linejoin="round"/>
</svg>
