<svg width="261" height="56" viewBox="0 0 261 56" fill="none" xmlns="http://www.w3.org/2000/svg">
<g clip-path="url(#clip0_79_199)">
<path d="M0 33V32.5L1 32.15C1.67 31.95 2.11 31.65 2.32 31.25C2.53 30.85 2.65 30.32 2.65 29.65V3.45C2.65 2.78 2.53 2.25 2.3 1.85C2.07 1.45 1.62 1.13 0.95 0.9L0 0.5V0H12.15C17.12 0 20.71 0.91 22.92 2.73C25.14 4.55 26.25 6.94 26.25 9.9C26.25 11.8 25.79 13.54 24.87 15.13C23.95 16.71 22.44 17.97 20.35 18.9C18.25 19.83 15.42 20.3 11.85 20.3H10.15V29.5C10.15 30.8 10.8 31.65 12.1 32.05L13.6 32.5V33H0ZM10.15 19.3H12.05C13.68 19.3 15.02 19.03 16.05 18.5C17.08 17.97 17.85 17.03 18.35 15.7C18.85 14.37 19.1 12.52 19.1 10.15C19.1 7.78 18.82 5.88 18.27 4.55C17.72 3.22 16.91 2.29 15.85 1.78C14.78 1.26 13.45 1.01 11.85 1.01H10.15V19.3Z" fill="white"/>
<path d="M39.7001 8.19994C41.8701 8.19994 43.7201 8.63994 45.2501 9.51994C46.7801 10.3999 47.9601 11.5999 48.7701 13.1199C49.5901 14.6399 50.0001 16.3599 50.0001 18.2899C50.0001 18.6599 49.9801 19.0299 49.9501 19.4099C49.9201 19.7899 49.8501 20.1399 49.7501 20.4399H34.8501C34.8801 24.0399 35.5201 26.6299 36.7701 28.2099C38.0201 29.7899 39.8801 30.5899 42.3501 30.5899C44.0201 30.5899 45.3701 30.3199 46.4001 29.7899C47.4301 29.2599 48.4001 28.4699 49.3001 27.4399L49.8001 27.8899C48.7701 29.7199 47.3901 31.1599 45.6801 32.1899C43.9601 33.2199 41.9101 33.7399 39.5101 33.7399C37.1101 33.7399 35.0401 33.2299 33.2101 32.2199C31.3801 31.1999 29.9401 29.7399 28.9101 27.8399C27.8801 25.9399 27.3601 23.6699 27.3601 21.0399C27.3601 18.4099 27.9601 15.9799 29.1601 14.0699C30.3601 12.1499 31.9001 10.6899 33.7801 9.68994C35.6601 8.68994 37.6401 8.18994 39.7001 8.18994V8.19994ZM39.5501 9.19994C38.5801 9.19994 37.7601 9.48994 37.0701 10.0799C36.3901 10.6599 35.8501 11.6999 35.4701 13.1799C35.0901 14.6599 34.8801 16.7599 34.8501 19.4599H43.4001C43.7301 15.8299 43.6001 13.2099 43.0001 11.6099C42.4001 10.0099 41.2501 9.20994 39.5501 9.20994V9.19994Z" fill="white"/>
<path d="M62 33.7502C59.87 33.7502 58.2101 33.2202 57.0201 32.1502C55.8401 31.0802 55.25 29.3802 55.25 27.0502V9.9502H51.8V9.4502L53 9.2502C54.03 9.0202 54.92 8.6802 55.67 8.2502C56.42 7.8202 57.1601 7.2302 57.9001 6.5002L62 1.9502H62.5L62.35 8.9502H67.95V9.9502H62.3V27.9502C62.3 29.1202 62.5601 30.0002 63.0801 30.6002C63.6001 31.2002 64.2501 31.5002 65.0501 31.5002C65.7501 31.5002 66.3701 31.3302 66.9001 30.9802C67.4301 30.6302 67.97 30.1502 68.5 29.5502L69 30.0502C68.33 31.1802 67.42 32.0802 66.25 32.7502C65.08 33.4202 63.67 33.7502 62 33.7502Z" fill="white"/>
<path d="M81.4499 33V32.5L82.4499 32.15C83.5799 31.78 84.1499 30.83 84.1499 29.3V3.7C84.1499 3.03 84.0699 2.5 83.9199 2.1C83.7699 1.7 83.3799 1.37 82.7399 1.1L81.4399 0.5V0H91.0899L100.34 24.2L109.05 0H118.9V0.5L118.1 0.8C117.47 1.03 117.03 1.36 116.8 1.78C116.57 2.2 116.45 2.74 116.45 3.4V29.55C116.45 30.22 116.53 30.73 116.7 31.1C116.87 31.47 117.27 31.78 117.9 32.05L118.9 32.5V33H106.45V32.5L107.5 32.05C108.13 31.78 108.53 31.47 108.7 31.1C108.87 30.73 108.95 30.22 108.95 29.55V18.3L109.05 4L98.5999 33H96.0999L85.1999 4.35L85.3499 16.8V29.4C85.3499 30.13 85.4599 30.73 85.6799 31.17C85.8999 31.62 86.3199 31.95 86.9499 32.15L88.0499 32.5V33H81.4499Z" fill="white"/>
<path d="M132.35 33.7502C129.82 33.7502 127.62 33.2302 125.75 32.1702C123.88 31.1202 122.44 29.6302 121.42 27.7002C120.4 25.7702 119.9 23.5002 119.9 20.9002C119.9 18.3002 120.44 16.0502 121.52 14.1502C122.6 12.2502 124.09 10.7802 125.97 9.7502C127.85 8.7202 129.98 8.2002 132.35 8.2002C134.72 8.2002 136.83 8.7102 138.7 9.7202C140.57 10.7402 142.04 12.2002 143.12 14.1002C144.2 16.0002 144.74 18.2702 144.74 20.9002C144.74 23.5302 144.23 25.8102 143.22 27.7302C142.2 29.6502 140.77 31.1302 138.92 32.1802C137.07 33.2302 134.88 33.7602 132.35 33.7602V33.7502ZM132.35 32.7502C133.52 32.7502 134.45 32.4202 135.15 31.7502C135.85 31.0802 136.36 29.9002 136.67 28.2002C136.99 26.5002 137.15 24.1002 137.15 21.0002C137.15 17.9002 136.99 15.4502 136.67 13.7502C136.35 12.0502 135.85 10.8702 135.15 10.2002C134.45 9.5302 133.52 9.2002 132.35 9.2002C131.18 9.2002 130.24 9.5302 129.52 10.2002C128.8 10.8702 128.29 12.0502 127.97 13.7502C127.65 15.4502 127.49 17.8702 127.49 21.0002C127.49 24.1302 127.65 26.5002 127.97 28.2002C128.29 29.9002 128.8 31.0802 129.52 31.7502C130.24 32.4202 131.18 32.7502 132.35 32.7502Z" fill="white"/>
<path d="M146.95 33.0002V32.5002L147.65 32.3002C148.28 32.1302 148.73 31.8502 148.98 31.4502C149.23 31.0502 149.37 30.5202 149.4 29.8502V14.2002C149.4 13.4702 149.28 12.9202 149.05 12.5802C148.82 12.2302 148.37 11.9902 147.7 11.8502L146.95 11.6502V11.1502L155.5 8.2502L156 8.7502L156.4 12.1502C157.5 11.0502 158.76 10.1202 160.17 9.3502C161.59 8.5802 163.06 8.2002 164.6 8.2002C166.14 8.2002 167.48 8.5202 168.45 9.1702C169.42 9.8202 170.15 10.8302 170.65 12.2002C171.95 10.9702 173.36 9.9902 174.87 9.2702C176.39 8.5502 177.86 8.2002 179.29 8.2002C181.66 8.2002 183.4 8.7702 184.52 9.9002C185.64 11.0302 186.19 12.8202 186.19 15.2502V29.9002C186.19 31.2002 186.79 32.0202 187.99 32.3502L188.54 32.5002V33.0002H176.99V32.5002L177.49 32.3502C178.12 32.1502 178.57 31.8502 178.82 31.4502C179.07 31.0502 179.2 30.5202 179.2 29.8502V14.5502C179.2 13.1502 178.95 12.1902 178.45 11.6702C177.95 11.1502 177.15 10.9002 176.05 10.9002C175.18 10.9002 174.34 11.0902 173.53 11.4802C172.71 11.8602 171.86 12.4402 170.95 13.2102C171.12 13.7402 171.23 14.3302 171.28 14.9602C171.33 15.5902 171.36 16.2602 171.36 16.9602V29.9102C171.39 31.2102 171.99 32.0302 173.16 32.3602L173.61 32.5102V33.0102H162.01V32.5102L162.71 32.3102C163.34 32.1102 163.79 31.8202 164.04 31.4302C164.29 31.0502 164.42 30.5202 164.42 29.8602V14.6002C164.42 13.2702 164.18 12.3202 163.69 11.7502C163.21 11.1802 162.38 10.9002 161.22 10.9002C160.45 10.9002 159.69 11.0902 158.92 11.4802C158.15 11.8602 157.35 12.4202 156.52 13.1502V29.9002C156.52 31.2002 157.1 32.0202 158.27 32.3502L158.72 32.5002V33.0002H146.97H146.95Z" fill="white"/>
<path d="M203.05 8.19994C205.22 8.19994 207.07 8.63994 208.6 9.51994C210.13 10.3999 211.31 11.5999 212.13 13.1199C212.95 14.6399 213.35 16.3599 213.35 18.2899C213.35 18.6599 213.33 19.0299 213.3 19.4099C213.27 19.7899 213.2 20.1399 213.1 20.4399H198.2C198.23 24.0399 198.87 26.6299 200.12 28.2099C201.37 29.7899 203.23 30.5899 205.7 30.5899C207.37 30.5899 208.72 30.3199 209.75 29.7899C210.78 29.2599 211.75 28.4699 212.65 27.4399L213.15 27.8899C212.12 29.7199 210.74 31.1599 209.03 32.1899C207.31 33.2199 205.25 33.7399 202.85 33.7399C200.45 33.7399 198.38 33.2299 196.55 32.2199C194.72 31.1999 193.28 29.7399 192.25 27.8399C191.22 25.9399 190.7 23.6699 190.7 21.0399C190.7 18.4099 191.3 15.9799 192.5 14.0699C193.7 12.1499 195.24 10.6899 197.12 9.68994C199 8.68994 200.98 8.18994 203.04 8.18994L203.05 8.19994ZM202.9 9.19994C201.93 9.19994 201.11 9.48994 200.42 10.0799C199.74 10.6599 199.2 11.6999 198.82 13.1799C198.44 14.6599 198.23 16.7599 198.2 19.4599H206.75C207.08 15.8299 206.95 13.2099 206.35 11.6099C205.75 10.0099 204.6 9.20994 202.9 9.20994V9.19994Z" fill="white"/>
<path d="M215.85 33.0002V32.5002L216.55 32.3002C217.72 31.9702 218.3 31.1502 218.3 29.8502V14.2002C218.3 13.4702 218.18 12.9202 217.95 12.5802C217.72 12.2302 217.27 11.9902 216.6 11.8502L215.85 11.6502V11.1502L224.4 8.2502L224.9 8.7502L225.3 11.7502C226.47 10.7202 227.78 9.8702 229.25 9.2002C230.72 8.5302 232.17 8.2002 233.6 8.2002C235.8 8.2002 237.49 8.8002 238.68 10.0002C239.86 11.2002 240.45 13.0302 240.45 15.5002V29.9002C240.45 31.2002 241.08 32.0202 242.35 32.3502L242.8 32.5002V33.0002H231V32.5002L231.65 32.3002C232.82 31.9302 233.4 31.1202 233.4 29.8502V13.9002C233.4 11.7702 232.33 10.7002 230.2 10.7002C228.73 10.7002 227.13 11.4302 225.4 12.9002V29.9002C225.4 31.2002 225.98 32.0202 227.15 32.3502L227.6 32.5002V33.0002H215.85Z" fill="white"/>
<path d="M254 33.7502C251.87 33.7502 250.21 33.2202 249.03 32.1502C247.85 31.0802 247.25 29.3802 247.25 27.0502V9.9502H243.8V9.4502L245 9.2502C246.03 9.0202 246.92 8.6802 247.67 8.2502C248.42 7.8202 249.16 7.2302 249.9 6.5002L254 1.9502H254.5L254.35 8.9502H259.95V9.9502H254.3V27.9502C254.3 29.1202 254.56 30.0002 255.08 30.6002C255.6 31.2002 256.25 31.5002 257.05 31.5002C257.75 31.5002 258.37 31.3302 258.9 30.9802C259.43 30.6302 259.97 30.1502 260.5 29.5502L261 30.0502C260.33 31.1802 259.42 32.0802 258.25 32.7502C257.08 33.4202 255.67 33.7502 254 33.7502Z" fill="white"/>
<path d="M65.1599 42.4299H69.6999C72.6499 42.4299 74.1099 44.2099 74.1099 46.5599C74.1099 48.9099 72.6499 50.6899 69.6999 50.6899H67.0999V55.1499H65.1699V42.4199L65.1599 42.4299ZM69.4999 49.0399C71.3799 49.0399 72.1499 47.9899 72.1499 46.5599C72.1499 45.1299 71.3799 44.0799 69.4999 44.0799H67.0899V49.0399H69.4999Z" fill="white"/>
<path d="M77.2798 42.4299H85.2598V44.0999H79.2098V47.9499H84.8298V49.5999H79.2098V53.4799H85.3298V55.1499H77.2798V42.4199V42.4299Z" fill="white"/>
<path d="M88.1399 42.4302H97.9999V44.1002H94.0399V55.1602H92.1099V44.1002H88.1399V42.4302Z" fill="white"/>
<path d="M106 42.4302H115.86V44.1002H111.9V55.1602H109.97V44.1002H106V42.4302Z" fill="white"/>
<path d="M118.96 42.4302H123.5C126.45 42.4302 127.91 44.0802 127.91 46.4202C127.91 48.1302 127.14 49.4302 125.59 50.0102L128.4 55.1602H126.2L123.62 50.3602H120.9V55.1602H118.97V42.4302H118.96ZM123.3 48.6902C125.18 48.6902 125.95 47.8602 125.95 46.4202C125.95 44.9802 125.18 44.0802 123.3 44.0802H120.89V48.6902H123.3Z" fill="white"/>
<path d="M130.22 55.1499L134.79 42.4199H137.02L141.61 55.1499H139.55L138.39 51.7899H133.43L132.27 55.1499H130.21H130.22ZM137.83 50.1799L135.95 44.7499H135.86L134 50.1799H137.83Z" fill="white"/>
<path d="M146.3 55.1499H144.37V42.4199H146.3V55.1499Z" fill="white"/>
<path d="M160.28 55.1499H158.5L152.05 45.8499H151.94V55.1499H150.01V42.4199H151.8L158.25 51.7399H158.37V42.4199H160.27V55.1499H160.28Z" fill="white"/>
<path d="M165.95 55.1499H164.02V42.4199H165.95V55.1499Z" fill="white"/>
<path d="M179.93 55.1499H178.15L171.7 45.8499H171.59V55.1499H169.66V42.4199H171.45L177.9 51.7399H178.02V42.4199H179.92V55.1499H179.93Z" fill="white"/>
<path d="M188.96 44.03C186.82 44.03 185.16 45.72 185.16 48.79C185.16 51.86 186.79 53.55 189.04 53.55C191.07 53.55 192.42 52.27 192.45 50.23H189.32V48.63H194.33V50.07C194.33 53.29 192.12 55.33 189.02 55.33C185.57 55.33 183.24 52.82 183.24 48.79C183.24 44.76 185.65 42.25 188.94 42.25C191.7 42.25 193.81 43.97 194.25 46.45H192.26C191.79 44.94 190.64 44.02 188.96 44.02V44.03Z" fill="white"/>
<path d="M23.1699 48.79H59.0999" stroke="white" stroke-width="0.75" stroke-miterlimit="10"/>
<path d="M200.4 48.79H236.33" stroke="white" stroke-width="0.75" stroke-miterlimit="10"/>
</g>
<defs>
<clipPath id="clip0_79_199">
<rect width="261" height="55.33" fill="white"/>
</clipPath>
</defs>
</svg>
