<svg width="261" height="56" viewBox="0 0 261 56" fill="none" xmlns="http://www.w3.org/2000/svg">
<g clip-path="url(#clip0_3_51)">
<path d="M0 33V32.5L1 32.15C1.67 31.95 2.11 31.65 2.32 31.25C2.53 30.85 2.65 30.32 2.65 29.65V3.45C2.65 2.78 2.53 2.25 2.3 1.85C2.07 1.45 1.62 1.13 0.95 0.9L0 0.5V0H12.15C17.12 0 20.71 0.91 22.92 2.73C25.14 4.55 26.25 6.94 26.25 9.9C26.25 11.8 25.79 13.54 24.87 15.13C23.95 16.71 22.44 17.97 20.35 18.9C18.25 19.83 15.42 20.3 11.85 20.3H10.15V29.5C10.15 30.8 10.8 31.65 12.1 32.05L13.6 32.5V33H0ZM10.15 19.3H12.05C13.68 19.3 15.02 19.03 16.05 18.5C17.08 17.97 17.85 17.03 18.35 15.7C18.85 14.37 19.1 12.52 19.1 10.15C19.1 7.78 18.82 5.88 18.27 4.55C17.72 3.22 16.91 2.29 15.85 1.78C14.78 1.26 13.45 1.01 11.85 1.01H10.15V19.3Z" fill="#1F433B"/>
<path d="M39.7001 8.19994C41.8701 8.19994 43.7201 8.63994 45.2501 9.51994C46.7801 10.3999 47.9601 11.5999 48.7701 13.1199C49.5901 14.6399 50.0001 16.3599 50.0001 18.2899C50.0001 18.6599 49.9801 19.0299 49.9501 19.4099C49.9201 19.7899 49.8501 20.1399 49.7501 20.4399H34.8501C34.8801 24.0399 35.5201 26.6299 36.7701 28.2099C38.0201 29.7899 39.8801 30.5899 42.3501 30.5899C44.0201 30.5899 45.3701 30.3199 46.4001 29.7899C47.4301 29.2599 48.4001 28.4699 49.3001 27.4399L49.8001 27.8899C48.7701 29.7199 47.3901 31.1599 45.6801 32.1899C43.9601 33.2199 41.9101 33.7399 39.5101 33.7399C37.1101 33.7399 35.0401 33.2299 33.2101 32.2199C31.3801 31.1999 29.9401 29.7399 28.9101 27.8399C27.8801 25.9399 27.3601 23.6699 27.3601 21.0399C27.3601 18.4099 27.9601 15.9799 29.1601 14.0699C30.3601 12.1499 31.9001 10.6899 33.7801 9.68994C35.6601 8.68994 37.6401 8.18994 39.7001 8.18994V8.19994ZM39.5501 9.19994C38.5801 9.19994 37.7601 9.48994 37.0701 10.0799C36.3901 10.6599 35.8501 11.6999 35.4701 13.1799C35.0901 14.6599 34.8801 16.7599 34.8501 19.4599H43.4001C43.7301 15.8299 43.6001 13.2099 43.0001 11.6099C42.4001 10.0099 41.2501 9.20994 39.5501 9.20994V9.19994Z" fill="#1F433B"/>
<path d="M62 33.75C59.87 33.75 58.2101 33.22 57.0201 32.15C55.8401 31.08 55.25 29.3799 55.25 27.0499V9.94995H51.8V9.44995L53 9.24995C54.03 9.01995 54.92 8.67995 55.67 8.24995C56.42 7.81995 57.1601 7.22995 57.9001 6.49995L62 1.94995H62.5L62.35 8.94995H67.95V9.94995H62.3V27.95C62.3 29.12 62.5601 30 63.0801 30.6C63.6001 31.2 64.2501 31.5 65.0501 31.5C65.7501 31.5 66.3701 31.33 66.9001 30.9799C67.4301 30.6299 67.97 30.15 68.5 29.5499L69 30.0499C68.33 31.1799 67.42 32.08 66.25 32.75C65.08 33.42 63.67 33.75 62 33.75Z" fill="#1F433B"/>
<path d="M81.4499 33V32.5L82.4499 32.15C83.5799 31.78 84.1499 30.83 84.1499 29.3V3.7C84.1499 3.03 84.0699 2.5 83.9199 2.1C83.7699 1.7 83.3799 1.37 82.7399 1.1L81.4399 0.5V0H91.0899L100.34 24.2L109.05 0H118.9V0.5L118.1 0.8C117.47 1.03 117.03 1.36 116.8 1.78C116.57 2.2 116.45 2.74 116.45 3.4V29.55C116.45 30.22 116.53 30.73 116.7 31.1C116.87 31.47 117.27 31.78 117.9 32.05L118.9 32.5V33H106.45V32.5L107.5 32.05C108.13 31.78 108.53 31.47 108.7 31.1C108.87 30.73 108.95 30.22 108.95 29.55V18.3L109.05 4L98.5999 33H96.0999L85.1999 4.35L85.3499 16.8V29.4C85.3499 30.13 85.4599 30.73 85.6799 31.17C85.8999 31.62 86.3199 31.95 86.9499 32.15L88.0499 32.5V33H81.4499Z" fill="#1F433B"/>
<path d="M132.35 33.75C129.82 33.75 127.62 33.2299 125.75 32.1699C123.88 31.1199 122.44 29.63 121.42 27.7C120.4 25.77 119.9 23.5 119.9 20.9C119.9 18.3 120.44 16.05 121.52 14.15C122.6 12.25 124.09 10.78 125.97 9.74995C127.85 8.71995 129.98 8.19995 132.35 8.19995C134.72 8.19995 136.83 8.70995 138.7 9.71995C140.57 10.74 142.04 12.2 143.12 14.1C144.2 16 144.74 18.27 144.74 20.9C144.74 23.53 144.23 25.8099 143.22 27.7299C142.2 29.65 140.77 31.13 138.92 32.18C137.07 33.2299 134.88 33.7599 132.35 33.7599V33.75ZM132.35 32.75C133.52 32.75 134.45 32.42 135.15 31.75C135.85 31.08 136.36 29.9 136.67 28.2C136.99 26.5 137.15 24.1 137.15 21C137.15 17.9 136.99 15.45 136.67 13.75C136.35 12.05 135.85 10.87 135.15 10.2C134.45 9.52995 133.52 9.19995 132.35 9.19995C131.18 9.19995 130.24 9.52995 129.52 10.2C128.8 10.87 128.29 12.05 127.97 13.75C127.65 15.45 127.49 17.87 127.49 21C127.49 24.13 127.65 26.5 127.97 28.2C128.29 29.9 128.8 31.08 129.52 31.75C130.24 32.42 131.18 32.75 132.35 32.75Z" fill="#1F433B"/>
<path d="M146.95 33V32.5L147.65 32.2999C148.28 32.1299 148.73 31.85 148.98 31.45C149.23 31.05 149.37 30.52 149.4 29.85V14.2C149.4 13.47 149.28 12.92 149.05 12.58C148.82 12.23 148.37 11.99 147.7 11.85L146.95 11.65V11.15L155.5 8.24995L156 8.74995L156.4 12.15C157.5 11.05 158.76 10.12 160.17 9.34995C161.59 8.57995 163.06 8.19995 164.6 8.19995C166.14 8.19995 167.48 8.51995 168.45 9.16995C169.42 9.81995 170.15 10.83 170.65 12.2C171.95 10.97 173.36 9.98995 174.87 9.26995C176.39 8.54995 177.86 8.19995 179.29 8.19995C181.66 8.19995 183.4 8.76995 184.52 9.89995C185.64 11.03 186.19 12.82 186.19 15.25V29.9C186.19 31.2 186.79 32.0199 187.99 32.3499L188.54 32.5V33H176.99V32.5L177.49 32.3499C178.12 32.1499 178.57 31.85 178.82 31.45C179.07 31.05 179.2 30.52 179.2 29.85V14.55C179.2 13.15 178.95 12.19 178.45 11.67C177.95 11.15 177.15 10.9 176.05 10.9C175.18 10.9 174.34 11.09 173.53 11.48C172.71 11.86 171.86 12.44 170.95 13.21C171.12 13.74 171.23 14.33 171.28 14.96C171.33 15.59 171.36 16.26 171.36 16.96V29.91C171.39 31.2099 171.99 32.03 173.16 32.36L173.61 32.5099V33.0099H162.01V32.5099L162.71 32.31C163.34 32.11 163.79 31.82 164.04 31.43C164.29 31.05 164.42 30.52 164.42 29.86V14.6C164.42 13.27 164.18 12.32 163.69 11.75C163.21 11.18 162.38 10.9 161.22 10.9C160.45 10.9 159.69 11.09 158.92 11.48C158.15 11.86 157.35 12.42 156.52 13.15V29.9C156.52 31.2 157.1 32.0199 158.27 32.3499L158.72 32.5V33H146.97H146.95Z" fill="#1F433B"/>
<path d="M203.05 8.19994C205.22 8.19994 207.07 8.63994 208.6 9.51994C210.13 10.3999 211.31 11.5999 212.13 13.1199C212.95 14.6399 213.35 16.3599 213.35 18.2899C213.35 18.6599 213.33 19.0299 213.3 19.4099C213.27 19.7899 213.2 20.1399 213.1 20.4399H198.2C198.23 24.0399 198.87 26.6299 200.12 28.2099C201.37 29.7899 203.23 30.5899 205.7 30.5899C207.37 30.5899 208.72 30.3199 209.75 29.7899C210.78 29.2599 211.75 28.4699 212.65 27.4399L213.15 27.8899C212.12 29.7199 210.74 31.1599 209.03 32.1899C207.31 33.2199 205.25 33.7399 202.85 33.7399C200.45 33.7399 198.38 33.2299 196.55 32.2199C194.72 31.1999 193.28 29.7399 192.25 27.8399C191.22 25.9399 190.7 23.6699 190.7 21.0399C190.7 18.4099 191.3 15.9799 192.5 14.0699C193.7 12.1499 195.24 10.6899 197.12 9.68994C199 8.68994 200.98 8.18994 203.04 8.18994L203.05 8.19994ZM202.9 9.19994C201.93 9.19994 201.11 9.48994 200.42 10.0799C199.74 10.6599 199.2 11.6999 198.82 13.1799C198.44 14.6599 198.23 16.7599 198.2 19.4599H206.75C207.08 15.8299 206.95 13.2099 206.35 11.6099C205.75 10.0099 204.6 9.20994 202.9 9.20994V9.19994Z" fill="#1F433B"/>
<path d="M215.85 33V32.5L216.55 32.2999C217.72 31.9699 218.3 31.15 218.3 29.85V14.2C218.3 13.47 218.18 12.92 217.95 12.58C217.72 12.23 217.27 11.99 216.6 11.85L215.85 11.65V11.15L224.4 8.24995L224.9 8.74995L225.3 11.75C226.47 10.72 227.78 9.86995 229.25 9.19995C230.72 8.52995 232.17 8.19995 233.6 8.19995C235.8 8.19995 237.49 8.79995 238.68 9.99995C239.86 11.2 240.45 13.03 240.45 15.5V29.9C240.45 31.2 241.08 32.0199 242.35 32.3499L242.8 32.5V33H231V32.5L231.65 32.2999C232.82 31.9299 233.4 31.12 233.4 29.85V13.9C233.4 11.77 232.33 10.7 230.2 10.7C228.73 10.7 227.13 11.43 225.4 12.9V29.9C225.4 31.2 225.98 32.0199 227.15 32.3499L227.6 32.5V33H215.85Z" fill="#1F433B"/>
<path d="M254 33.75C251.87 33.75 250.21 33.22 249.03 32.15C247.85 31.08 247.25 29.3799 247.25 27.0499V9.94995H243.8V9.44995L245 9.24995C246.03 9.01995 246.92 8.67995 247.67 8.24995C248.42 7.81995 249.16 7.22995 249.9 6.49995L254 1.94995H254.5L254.35 8.94995H259.95V9.94995H254.3V27.95C254.3 29.12 254.56 30 255.08 30.6C255.6 31.2 256.25 31.5 257.05 31.5C257.75 31.5 258.37 31.33 258.9 30.9799C259.43 30.6299 259.97 30.15 260.5 29.5499L261 30.0499C260.33 31.1799 259.42 32.08 258.25 32.75C257.08 33.42 255.67 33.75 254 33.75Z" fill="#1F433B"/>
<path d="M65.1599 42.43H69.6999C72.6499 42.43 74.1099 44.21 74.1099 46.56C74.1099 48.91 72.6499 50.69 69.6999 50.69H67.0999V55.15H65.1699V42.42L65.1599 42.43ZM69.4999 49.04C71.3799 49.04 72.1499 47.99 72.1499 46.56C72.1499 45.13 71.3799 44.08 69.4999 44.08H67.0899V49.04H69.4999Z" fill="#AA8A6E"/>
<path d="M77.2798 42.43H85.2598V44.1H79.2098V47.95H84.8298V49.6H79.2098V53.48H85.3298V55.15H77.2798V42.42V42.43Z" fill="#AA8A6E"/>
<path d="M88.1399 42.4301H97.9999V44.1001H94.0399V55.1601H92.1099V44.1001H88.1399V42.4301Z" fill="#AA8A6E"/>
<path d="M106 42.4301H115.86V44.1001H111.9V55.1601H109.97V44.1001H106V42.4301Z" fill="#AA8A6E"/>
<path d="M118.96 42.4301H123.5C126.45 42.4301 127.91 44.0801 127.91 46.4201C127.91 48.1301 127.14 49.4301 125.59 50.0101L128.4 55.1601H126.2L123.62 50.3601H120.9V55.1601H118.97V42.4301H118.96ZM123.3 48.6901C125.18 48.6901 125.95 47.8601 125.95 46.4201C125.95 44.9801 125.18 44.0801 123.3 44.0801H120.89V48.6901H123.3Z" fill="#AA8A6E"/>
<path d="M130.22 55.15L134.79 42.42H137.02L141.61 55.15H139.55L138.39 51.79H133.43L132.27 55.15H130.21H130.22ZM137.83 50.18L135.95 44.75H135.86L134 50.18H137.83Z" fill="#AA8A6E"/>
<path d="M146.3 55.15H144.37V42.42H146.3V55.15Z" fill="#AA8A6E"/>
<path d="M160.28 55.15H158.5L152.05 45.85H151.94V55.15H150.01V42.42H151.8L158.25 51.74H158.37V42.42H160.27V55.15H160.28Z" fill="#AA8A6E"/>
<path d="M165.95 55.15H164.02V42.42H165.95V55.15Z" fill="#AA8A6E"/>
<path d="M179.93 55.15H178.15L171.7 45.85H171.59V55.15H169.66V42.42H171.45L177.9 51.74H178.02V42.42H179.92V55.15H179.93Z" fill="#AA8A6E"/>
<path d="M188.96 44.03C186.82 44.03 185.16 45.72 185.16 48.79C185.16 51.86 186.79 53.55 189.04 53.55C191.07 53.55 192.42 52.27 192.45 50.23H189.32V48.63H194.33V50.07C194.33 53.29 192.12 55.33 189.02 55.33C185.57 55.33 183.24 52.82 183.24 48.79C183.24 44.76 185.65 42.25 188.94 42.25C191.7 42.25 193.81 43.97 194.25 46.45H192.26C191.79 44.94 190.64 44.02 188.96 44.02V44.03Z" fill="#AA8A6E"/>
<path d="M23.1699 48.79H59.0999" stroke="#AA8A6E" stroke-width="0.75" stroke-miterlimit="10"/>
<path d="M200.4 48.79H236.33" stroke="#AA8A6E" stroke-width="0.75" stroke-miterlimit="10"/>
</g>
<defs>
<clipPath id="clip0_3_51">
<rect width="261" height="55.33" fill="white"/>
</clipPath>
</defs>
</svg>
