<svg width="27" height="29" viewBox="0 0 27 29" fill="none" xmlns="http://www.w3.org/2000/svg">
<path d="M6.09433 24.3945C6.09433 24.3945 6.14054 24.3367 6.15209 24.2847C6.23296 23.9613 6.20986 23.5858 6.24451 23.2508C6.36582 22.003 6.63732 20.7842 7.2554 19.6809C7.99479 18.3696 8.8035 17.0988 9.6642 15.8626C9.89526 15.5276 10.1321 15.1983 10.3689 14.8691C11.6802 13.0668 13.7077 12.6624 15.4985 13.9622C17.6011 15.4871 19.4669 17.353 20.8648 19.5538C21.893 21.1712 23.0483 23.141 21.9681 25.0241C21.3443 26.1159 20.2179 26.786 19.0914 27.2539C17.7859 27.7969 16.4054 28.1088 15.0017 28.2821C14.0139 28.4092 13.0146 28.4727 12.021 28.5189C10.4845 28.594 8.93636 28.5478 7.41137 28.3225C6.85682 28.2416 6.31961 28.1319 5.79395 27.9239C3.94547 27.2077 2.68042 25.5556 1.68686 23.9093C1.59444 23.7533 1.50779 23.6031 1.42114 23.4414C1.10343 22.8291 0.860822 22.1705 0.710634 21.4947C0.635539 21.1423 0.560445 20.7842 0.525786 20.4203C0.50268 20.1661 0.410256 19.7618 0.537339 19.5249C0.647092 19.3227 0.704857 19.4383 0.849269 19.5885C1.02256 19.7675 1.1612 19.9755 1.32872 20.1661C2.13165 21.0961 2.99235 21.9857 3.90503 22.8117C4.24585 23.1179 4.59244 23.424 4.95636 23.7013C5.17009 23.8631 5.38959 24.0595 5.62065 24.2097C5.76507 24.3021 5.9788 24.4927 6.09433 24.3887V24.3945Z" fill="#4F422D"/>
<path d="M13.65 2.79042C14.2392 0.843738 16.0415 -0.351996 17.7109 0.0927941C20.241 0.77442 21.2865 3.72621 20.085 5.96749C19.6056 6.86284 19.0972 7.70621 18.4214 8.46871C17.191 9.85507 15.0883 9.44494 14.1814 7.81597C13.4998 6.59713 13.2456 4.14789 13.6558 2.79042H13.65Z" fill="#4F422D"/>
<path d="M8.62447 9.93017C6.17524 9.15612 4.14769 5.28009 4.93907 2.88285C5.60337 0.872628 7.57893 0.185226 9.32921 1.35785C11.4896 2.80775 12.6045 6.47005 11.5532 8.64201C10.9293 9.92439 9.95884 10.3519 8.62447 9.93017Z" fill="#4F422D"/>
<path d="M24.7584 14.9326C24.6371 15.0712 24.5042 15.2041 24.3714 15.3312C23.1236 16.498 21.3098 15.9782 20.322 14.7766C19.0512 13.2343 19.2245 10.0746 20.6513 8.67667C21.9857 7.37118 23.245 7.12857 24.7006 7.88529C25.4227 8.26076 25.9079 9.00593 26.1563 9.76265C26.7571 11.5822 25.9715 13.552 24.7584 14.9268V14.9326Z" fill="#4F422D"/>
<path d="M3.79536 8.90195C6.46988 9.72221 7.87357 12.5585 6.89156 15.1521C6.27926 16.7695 4.59252 17.4049 3.02709 16.6078C1.18439 15.672 -0.282842 12.7838 0.0464178 10.7389C0.312137 9.09257 1.90067 8.31852 3.80114 8.89617L3.79536 8.90195Z" fill="#4F422D"/>
</svg>
