<?xml version="1.0" encoding="UTF-8"?>
<svg id="Layer_2" data-name="Layer 2" xmlns="http://www.w3.org/2000/svg" viewBox="0 0 37.74 25">
  <defs>
    <style>
      .cls-1 {
        fill: #fff;
      }
    </style>
  </defs>
  <g id="design">
    <path class="cls-1" d="M37.74,16.24c0,5.38-2.32,8.76-6.5,8.76-3.69,0-5.65-2.04-9.25-8.05l-1.85-3.1c-.49-.74-.85-1.43-1.25-2.06-1.19,1.99-2.78,4.89-2.78,4.89-3.95,6.87-6.17,8.33-9.25,8.33-4.29,0-6.85-3.38-6.85-8.6C0,7.97,4.71,0,10.84,0c2.96,0,5.53,1.46,8.54,5.28,2.19-2.95,4.6-5.28,7.7-5.28,5.84,0,10.65,7.41,10.65,16.24h0Zm-20.79-7.41c-2.53-3.66-4.18-4.75-6.16-4.75-3.65,0-6.71,6.26-6.71,12.38,0,2.86,1.09,4.46,2.92,4.46s2.89-1.12,6.08-6.12c0,0,1.46-2.31,3.86-5.98h0Zm14.38,12.1c1.9,0,2.77-1.62,2.77-4.42,0-7.32-3.2-13.29-7.26-13.29-1.96,0-3.6,1.53-5.6,4.6,.55,.81,1.13,1.71,1.73,2.68l2.21,3.68c3.46,5.55,4.33,6.75,6.16,6.75h0Z"/>
  </g>
</svg>