<?xml version="1.0" encoding="UTF-8"?>
<svg id="Layer_2" data-name="Layer 2" xmlns="http://www.w3.org/2000/svg" viewBox="0 0 25.01 25">
  <defs>
    <style>
      .cls-1 {
        fill: #fff;
      }
    </style>
  </defs>
  <g id="design">
    <path class="cls-1" d="M12.51,6.09c-3.55,0-6.41,2.86-6.41,6.41s2.86,6.41,6.41,6.41,6.41-2.86,6.41-6.41-2.86-6.41-6.41-6.41Zm0,10.58c-2.29,0-4.17-1.87-4.17-4.17s1.87-4.17,4.17-4.17,4.17,1.87,4.17,4.17-1.87,4.17-4.17,4.17h0ZM20.67,5.83c0,.83-.67,1.5-1.5,1.5s-1.5-.67-1.5-1.5,.67-1.5,1.5-1.5,1.5,.67,1.5,1.5Zm4.25,1.52c-.09-2-.55-3.78-2.02-5.24C21.44,.65,19.66,.19,17.66,.09,15.6-.03,9.41-.03,7.35,.09c-2,.09-3.77,.55-5.24,2.01C.64,3.56,.19,5.34,.09,7.34-.03,9.4-.03,15.59,.09,17.65c.09,2,.55,3.78,2.02,5.24,1.47,1.46,3.24,1.92,5.24,2.02,2.06,.12,8.25,.12,10.31,0,2-.09,3.78-.55,5.24-2.02,1.46-1.46,1.92-3.24,2.02-5.24,.12-2.06,.12-8.25,0-10.31h0Zm-2.67,12.52c-.44,1.09-1.28,1.94-2.38,2.38-1.65,.65-5.55,.5-7.37,.5s-5.73,.15-7.37-.5c-1.09-.44-1.94-1.28-2.38-2.38-.65-1.65-.5-5.55-.5-7.37s-.15-5.73,.5-7.37c.44-1.09,1.28-1.94,2.38-2.38,1.65-.65,5.55-.5,7.37-.5s5.73-.15,7.37,.5c1.09,.44,1.94,1.28,2.38,2.38,.65,1.65,.5,5.55,.5,7.37s.15,5.73-.5,7.37Z"/>
  </g>
</svg>