<?xml version="1.0" encoding="UTF-8"?>
<svg id="Layer_2" data-name="Layer 2" xmlns="http://www.w3.org/2000/svg" viewBox="0 0 34.98 25">
  <defs>
    <style>
      .cls-1 {
        fill: #fff;
      }
    </style>
  </defs>
  <g id="design">
    <path class="cls-1" d="M34.25,3.91c-.4-1.54-1.59-2.75-3.09-3.16-2.73-.75-13.67-.75-13.67-.75,0,0-10.94,0-13.67,.75-1.5,.41-2.69,1.62-3.09,3.16-.73,2.79-.73,8.61-.73,8.61,0,0,0,5.82,.73,8.61,.4,1.54,1.59,2.7,3.09,3.11,2.73,.75,13.67,.75,13.67,.75,0,0,10.94,0,13.67-.75,1.5-.41,2.69-1.58,3.09-3.11,.73-2.79,.73-8.61,.73-8.61,0,0,0-5.82-.73-8.61h0ZM13.92,17.81V7.24l9.14,5.29-9.14,5.29h0Z"/>
  </g>
</svg>