<?xml version="1.0" encoding="UTF-8"?>
<svg id="Layer_2" data-name="Layer 2" xmlns="http://www.w3.org/2000/svg" viewBox="0 0 25.09 25">
  <defs>
    <style>
      .cls-1 {
        fill: #fff;
      }
    </style>
  </defs>
  <g id="design">
    <path class="cls-1" d="M25.09,12.55C25.09,5.62,19.48,0,12.55,0S0,5.62,0,12.55c0,5.88,4.05,10.82,9.52,12.18v-8.35h-2.59v-3.83h2.59v-1.65c0-4.27,1.93-6.25,6.13-6.25,.79,0,2.17,.16,2.73,.31v3.47c-.29-.03-.81-.05-1.45-.05-2.06,0-2.85,.78-2.85,2.8v1.36h4.1l-.71,3.83h-3.4v8.62c6.21-.75,11.03-6.04,11.03-12.45h0Z"/>
  </g>
</svg>