<svg width="16" height="27" viewBox="0 0 16 27" fill="none" xmlns="http://www.w3.org/2000/svg">
<path d="M15.5225 22.065C15.6792 20.6493 15.5275 19.365 15.1331 18.1971C14.491 16.301 13.2067 14.7032 11.5483 13.3128C10.1528 12.1398 9.17696 10.8858 8.82303 9.05549C8.79775 8.93414 8.77752 8.81785 8.75224 8.71167L8.71685 8.53976C8.44381 7.23527 8.37808 7.19987 8.59044 6.70942C9.26291 7.20493 9.95561 7.90774 10.8202 7.20493C11.1438 6.94201 11.4421 6.40605 11.4219 6.00661C11.2854 3.42796 8.45393 0.899873 5.87022 0.955491C4.68202 0.980772 3.7719 1.54201 2.91235 2.32066C2.43202 2.76055 1.80505 3.08414 1.1882 3.30661C0.364039 3.60493 0.050555 4.22684 0.283139 4.90942C0.530892 5.64763 1.00617 6.36055 1.53707 6.93695C2.23988 7.69032 3.08426 8.31729 3.89325 8.95942C4.07527 9.101 4.3837 9.16673 4.62134 9.1465C5.05617 9.10605 5.491 9.0656 5.91572 9.01504C6.67415 8.9392 7.41741 8.84819 8.13033 8.76729C7.74101 9.75324 5.01067 10.2487 3.59494 9.41448C3.57471 9.40437 3.5646 9.39425 3.5646 9.39425C2.51797 10.7443 2.14887 12.3521 2.10337 13.9802C2.01235 17.287 2.09831 20.5937 2.06291 23.9004C2.05786 24.5931 1.85561 25.2858 1.69381 26.292C2.22471 26.828 3.20561 26.7066 4.15617 26.565C4.97528 26.4386 4.84381 25.7055 4.88932 25.1493C5.02078 23.4504 5.08651 21.7516 5.26348 20.0577C5.30393 19.7038 5.69831 19.3903 5.92584 19.0566C6.12809 19.451 6.45674 19.8353 6.50224 20.2448C6.63876 21.5089 6.67921 22.783 6.72471 24.0572C6.74999 24.6841 6.94213 25.4122 5.99662 25.6246C5.88539 25.6499 5.73876 25.9785 5.77921 26.0999C5.84494 26.2819 6.06235 26.5195 6.22921 26.5347C7.76629 26.6358 9.30842 26.7774 10.8404 26.7572C11.0022 26.7622 11.159 26.7572 11.3157 26.7572C11.9124 26.737 12.4938 26.1555 13.2775 25.7257L15.5781 22.8285C15.5579 22.5757 15.4972 22.3179 15.5225 22.0701V22.065ZM14.3191 20.8566C14.2786 20.7201 14.2483 20.5836 14.223 20.4471C13.8388 18.1111 12.7668 16.215 10.8961 14.7235C9.93538 13.96 9.02527 13.0752 8.90898 11.892C9.98595 13.0145 11.1388 14.2178 12.3017 15.4111C13.7022 16.8521 14.2584 18.6117 14.4455 20.5077C14.4809 20.8364 14.5011 21.1752 14.5163 21.5139C14.4556 21.2965 14.3798 21.0791 14.3191 20.8566Z" fill="#4F422D"/>
</svg>
